<svg width="134" height="214" viewBox="0 0 134 214" fill="none" xmlns="http://www.w3.org/2000/svg">
<circle cx="2.5" cy="2.5" r="2.5" fill="#69B99D"/>
<circle cx="2.5" cy="32.5" r="2.5" fill="#69B99D"/>
<circle cx="2.5" cy="62.5" r="2.5" fill="#69B99D"/>
<circle cx="2.5" cy="92.5" r="2.5" fill="#69B99D"/>
<circle cx="2.5" cy="122.5" r="2.5" fill="#69B99D"/>
<circle cx="2.5" cy="152.5" r="2.5" fill="#69B99D"/>
<circle cx="2.5" cy="182.5" r="2.5" fill="#69B99D"/>
<circle cx="2.5" cy="212.5" r="2.5" fill="#69B99D"/>
<circle cx="32.5" cy="2.5" r="2.5" fill="#69B99D"/>
<circle cx="32.5" cy="32.5" r="2.5" fill="#69B99D"/>
<circle cx="32.5" cy="62.5" r="2.5" fill="#69B99D"/>
<circle cx="32.5" cy="92.5" r="2.5" fill="#69B99D"/>
<circle cx="32.5" cy="122.5" r="2.5" fill="#69B99D"/>
<circle cx="32.5" cy="152.5" r="2.5" fill="#69B99D"/>
<circle cx="32.5" cy="182.5" r="2.5" fill="#69B99D"/>
<circle cx="32.5" cy="212.5" r="2.5" fill="#69B99D"/>
<circle cx="62.5" cy="2.5" r="2.5" fill="#69B99D"/>
<circle cx="62.5" cy="32.5" r="2.5" fill="#69B99D"/>
<circle cx="62.5" cy="62.5" r="2.5" fill="#69B99D"/>
<circle cx="62.5" cy="92.5" r="2.5" fill="#69B99D"/>
<circle cx="62.5" cy="122.5" r="2.5" fill="#69B99D"/>
<circle cx="62.5" cy="152.5" r="2.5" fill="#69B99D"/>
<circle cx="62.5" cy="182.5" r="2.5" fill="#69B99D"/>
<circle cx="62.5" cy="212.5" r="2.5" fill="#69B99D"/>
<circle cx="92.5" cy="2.5" r="2.5" fill="#69B99D"/>
<circle cx="92.5" cy="32.5" r="2.5" fill="#69B99D"/>
<circle cx="92.5" cy="62.5" r="2.5" fill="#69B99D"/>
<circle cx="92.5" cy="92.5" r="2.5" fill="#69B99D"/>
<circle cx="92.5" cy="122.5" r="2.5" fill="#69B99D"/>
<circle cx="92.5" cy="152.5" r="2.5" fill="#69B99D"/>
<circle cx="92.5" cy="182.5" r="2.5" fill="#69B99D"/>
<circle cx="92.5" cy="212.5" r="2.5" fill="#69B99D"/>
<circle cx="122.5" cy="2.5" r="2.5" fill="#69B99D"/>
<circle cx="122.5" cy="32.5" r="2.5" fill="#69B99D"/>
<circle cx="122.5" cy="62.5" r="2.5" fill="#69B99D"/>
<circle cx="122.5" cy="92.5" r="2.5" fill="#69B99D"/>
<circle cx="122.5" cy="122.5" r="2.5" fill="#69B99D"/>
<circle cx="122.5" cy="152.5" r="2.5" fill="#69B99D"/>
<circle cx="122.5" cy="182.5" r="2.5" fill="#69B99D"/>
<circle cx="122.5" cy="212.5" r="2.5" fill="#69B99D"/>
</svg>