<svg viewBox="0 0 24 24" xmlns="http://www.w3.org/2000/svg" fill="currentColor">
  <path d="M17.472 14.382c-.297-.149-1.758-.867-2.03-.967-.273-.099-.471-.148-.67.15-.197.297-.767.966-.94 1.164-.173.199-.347.223-.644.075-.297-.15-1.255-.463-2.39-1.475-.883-.788-1.48-1.761-1.653-2.059-.173-.297-.018-.458.13-.606.134-.133.298-.347.446-.52.149-.174.198-.298.298-.497.099-.198.05-.371-.025-.52-.075-.149-.669-1.612-.916-2.207-.242-.579-.487-.5-.67-.51-.173-.008-.371-.01-.57-.01-.198 0-.52.074-.792.372-.272.297-1.04 1.016-1.04 2.479 0 1.462 1.065 2.875 1.213 3.074.149.198 2.096 3.2 5.076 4.487.709.306 1.262.489 1.694.625.712.227 1.36.195 1.871.118.571-.085 1.758-.719 2.006-1.413.248-.694.248-1.289.173-1.413-.074-.124-.272-.198-.57-.347m-5.421-7.403h-.004a8.06 8.06 0 0 0-8.062 8.062c0 1.585.383 3.095 1.12 4.408l-1.19 3.541 3.637-1.188a8.025 8.025 0 0 0 4.495 1.363h.005c4.448 0 8.063-3.615 8.063-8.062s-3.615-8.062-8.063-8.062M19.675 3.5C17.71 1.533 15.047 0.5 12.203 0.5 5.897 0.5.72 5.677.72 11.983c0 2.109.549 4.176 1.594 6.016L.5 24l6.389-2.081a12.04 12.04 0 0 0 5.314 1.348h.006C18.303 23.267 23.48 18.09 23.48 11.783c0-2.844-1.033-5.507-2.805-7.583"/>
</svg>